<?xml version="1.0" encoding="UTF-8"?>
<svg width="1266px" height="770px" viewBox="0 0 1266 770" version="1.1" xmlns="http://www.w3.org/2000/svg" xmlns:xlink="http://www.w3.org/1999/xlink">
    <!-- Generator: Sketch 51.2 (57519) - http://www.bohemiancoding.com/sketch -->
    <title>listie-hp</title>
    <desc>Created with Sketch.</desc>
    <defs></defs>
    <g id="listie-hp" stroke="none" stroke-width="1" fill="none" fill-rule="evenodd">
        <g id="Cover-Copy" transform="translate(-82.000000, -6.000000)">
            <rect id="bg" fill="#FFFDE7" fill-rule="nonzero" x="12" y="0" width="1400" height="791"></rect>
            <g id="pattern-bg" fill-rule="nonzero">
                <g id="Group-Copy-8" transform="translate(388.000000, 194.000000)">
                    <polygon id="Triangle-Copy-5" fill="#00D0C3" points="19.2790743 0 30.6301023 27.4856947 7 27.0625202"></polygon>
                    <polygon id="Triangle-Copy-4" stroke="#4A4A4A" stroke-width="2" points="12.2790743 5 23.6301023 32.4856947 2.13162821e-14 32.0625202"></polygon>
                </g>
                <g id="Group-Copy-21" transform="translate(294.000000, 49.000000)">
                    <polygon id="Triangle-Copy-5" fill="#00D0C3" points="19.2790743 0 30.6301023 27.4856947 7 27.0625202"></polygon>
                    <polygon id="Triangle-Copy-4" stroke="#4A4A4A" stroke-width="2" points="12.2790743 5 23.6301023 32.4856947 2.13162821e-14 32.0625202"></polygon>
                </g>
                <g id="Group-Copy-20" transform="translate(901.000000, 266.000000)">
                    <polygon id="Triangle-Copy-5" fill="#00D0C3" points="19.2790743 0 30.6301023 27.4856947 7 27.0625202"></polygon>
                    <polygon id="Triangle-Copy-4" stroke="#4A4A4A" stroke-width="2" points="12.2790743 5 23.6301023 32.4856947 2.13162821e-14 32.0625202"></polygon>
                </g>
                <g id="Group-Copy-33" transform="translate(1199.000000, 109.000000)">
                    <polygon id="Triangle-Copy-5" fill="#00D0C3" points="19.2790743 0 30.6301023 27.4856947 7 27.0625202"></polygon>
                    <polygon id="Triangle-Copy-4" stroke="#4A4A4A" stroke-width="2" points="12.2790743 5 23.6301023 32.4856947 2.13162821e-14 32.0625202"></polygon>
                </g>
                <g id="Group-Copy-17" transform="translate(858.000000, 32.000000)">
                    <polygon id="Triangle-Copy-5" fill="#00D0C3" points="19.2790743 0 30.6301023 27.4856947 7 27.0625202"></polygon>
                    <polygon id="Triangle-Copy-4" stroke="#4A4A4A" stroke-width="2" points="12.2790743 5 23.6301023 32.4856947 2.13162821e-14 32.0625202"></polygon>
                </g>
                <g id="Group-Copy-15" transform="translate(656.000000, 524.000000)">
                    <polygon id="Triangle-Copy-5" fill="#00D0C3" points="19.2790743 0 30.6301023 27.4856947 7 27.0625202"></polygon>
                    <polygon id="Triangle-Copy-4" stroke="#4A4A4A" stroke-width="2" points="12.2790743 5 23.6301023 32.4856947 2.13162821e-14 32.0625202"></polygon>
                </g>
                <g id="Group-Copy-18" transform="translate(589.000000, 224.000000)">
                    <polygon id="Triangle-Copy-5" fill="#00D0C3" points="19.2790743 0 30.6301023 27.4856947 7 27.0625202"></polygon>
                    <polygon id="Triangle-Copy-4" stroke="#4A4A4A" stroke-width="2" points="12.2790743 5 23.6301023 32.4856947 2.13162821e-14 32.0625202"></polygon>
                </g>
                <g id="Group-Copy-23" transform="translate(749.000000, 694.000000)">
                    <polygon id="Triangle-Copy-5" fill="#00D0C3" points="19.2790743 0 30.6301023 27.4856947 7 27.0625202"></polygon>
                    <polygon id="Triangle-Copy-4" stroke="#4A4A4A" stroke-width="2" points="12.2790743 5 23.6301023 32.4856947 2.13162821e-14 32.0625202"></polygon>
                </g>
                <g id="Group-Copy-6" transform="translate(357.000000, 702.000000)">
                    <polygon id="Triangle-Copy-5" fill="#00D0C3" points="19.2790743 0 30.6301023 27.4856947 7 27.0625202"></polygon>
                    <polygon id="Triangle-Copy-4" stroke="#4A4A4A" stroke-width="2" points="12.2790743 5 23.6301023 32.4856947 2.13162821e-14 32.0625202"></polygon>
                </g>
                <g id="Group-Copy-34" transform="translate(223.000000, 736.000000)">
                    <polygon id="Triangle-Copy-5" fill="#00D0C3" points="19.2790743 0 30.6301023 27.4856947 7 27.0625202"></polygon>
                    <polygon id="Triangle-Copy-4" stroke="#4A4A4A" stroke-width="2" points="12.2790743 5 23.6301023 32.4856947 2.13162821e-14 32.0625202"></polygon>
                </g>
                <g id="Group-Copy-3" transform="translate(153.000000, 266.000000)">
                    <polygon id="Triangle-Copy-5" fill="#00D0C3" points="19.2790743 0 30.6301023 27.4856947 7 27.0625202"></polygon>
                    <polygon id="Triangle-Copy-4" stroke="#4A4A4A" stroke-width="2" points="12.2790743 5 23.6301023 32.4856947 2.13162821e-14 32.0625202"></polygon>
                </g>
                <g id="Group-Copy-10" transform="translate(392.000000, 455.000000)">
                    <polygon id="Triangle-Copy-5" fill="#00D0C3" points="19.2790743 0 30.6301023 27.4856947 7 27.0625202"></polygon>
                    <polygon id="Triangle-Copy-4" stroke="#4A4A4A" stroke-width="2" points="12.2790743 5 23.6301023 32.4856947 2.13162821e-14 32.0625202"></polygon>
                </g>
                <g id="Group-3" transform="translate(81.000000, 150.000000)">
                    <rect id="Rectangle" fill="#FF96BC" x="0" y="0" width="30" height="30"></rect>
                    <rect id="Rectangle-Copy" stroke="#4A4A4A" stroke-width="2" x="5" y="5" width="28" height="28"></rect>
                </g>
                <g id="Group-3-Copy" transform="translate(404.000000, 65.000000)">
                    <rect id="Rectangle" fill="#FF96BC" x="0" y="0" width="30" height="30"></rect>
                    <rect id="Rectangle-Copy" stroke="#4A4A4A" stroke-width="2" x="5" y="5" width="28" height="28"></rect>
                </g>
                <g id="Group-3-Copy-5" transform="translate(671.000000, 0.000000)">
                    <rect id="Rectangle" fill="#FF96BC" x="0" y="0" width="30" height="30"></rect>
                    <rect id="Rectangle-Copy" stroke="#4A4A4A" stroke-width="2" x="5" y="5" width="28" height="28"></rect>
                </g>
                <g id="Group-3-Copy-2" transform="translate(171.000000, 636.000000)">
                    <rect id="Rectangle" fill="#FF96BC" x="0" y="0" width="30" height="30"></rect>
                    <rect id="Rectangle-Copy" stroke="#4A4A4A" stroke-width="2" x="5" y="5" width="28" height="28"></rect>
                </g>
                <g id="Group-3-Copy-3" transform="translate(225.000000, 403.000000)">
                    <rect id="Rectangle" fill="#FF96BC" x="0" y="0" width="30" height="30"></rect>
                    <rect id="Rectangle-Copy" stroke="#4A4A4A" stroke-width="2" x="5" y="5" width="28" height="28"></rect>
                </g>
                <g id="Group-3-Copy-6" transform="translate(512.000000, 515.000000)">
                    <rect id="Rectangle" fill="#FF96BC" x="0" y="0" width="30" height="30"></rect>
                    <rect id="Rectangle-Copy" stroke="#4A4A4A" stroke-width="2" x="5" y="5" width="28" height="28"></rect>
                </g>
                <g id="Group-3-Copy-9" transform="translate(678.000000, 167.000000)">
                    <rect id="Rectangle" fill="#FF96BC" x="0" y="0" width="30" height="30"></rect>
                    <rect id="Rectangle-Copy" stroke="#4A4A4A" stroke-width="2" x="5" y="5" width="28" height="28"></rect>
                </g>
                <g id="Group-3-Copy-7" transform="translate(639.000000, 627.000000)">
                    <rect id="Rectangle" fill="#FF96BC" x="0" y="0" width="30" height="30"></rect>
                    <rect id="Rectangle-Copy" stroke="#4A4A4A" stroke-width="2" x="5" y="5" width="28" height="28"></rect>
                </g>
                <g id="Group-3-Copy-10" transform="translate(897.000000, 735.000000)">
                    <rect id="Rectangle" fill="#FF96BC" x="0" y="0" width="30" height="30"></rect>
                    <rect id="Rectangle-Copy" stroke="#4A4A4A" stroke-width="2" x="5" y="5" width="28" height="28"></rect>
                </g>
                <g id="Group-3-Copy-8" transform="translate(880.000000, 515.000000)">
                    <rect id="Rectangle" fill="#FF96BC" x="0" y="0" width="30" height="30"></rect>
                    <rect id="Rectangle-Copy" stroke="#4A4A4A" stroke-width="2" x="5" y="5" width="28" height="28"></rect>
                </g>
                <g id="Group-2-Copy-2" transform="translate(254.000000, 184.000000)">
                    <circle id="Oval-Copy-3" fill="#FFEE6B" cx="15" cy="15" r="15"></circle>
                    <circle id="Oval-Copy-2" stroke="#4A4A4A" stroke-width="2" cx="20" cy="18" r="15"></circle>
                </g>
                <g id="Group-2-Copy-17" transform="translate(138.000000, 0.000000)">
                    <circle id="Oval-Copy-3" fill="#FFEE6B" cx="15" cy="15" r="15"></circle>
                    <circle id="Oval-Copy-2" stroke="#4A4A4A" stroke-width="2" cx="20" cy="18" r="15"></circle>
                </g>
                <g id="Group-2-Copy-3" transform="translate(371.000000, 355.000000)">
                    <circle id="Oval-Copy-3" fill="#FFEE6B" cx="15" cy="15" r="15"></circle>
                    <circle id="Oval-Copy-2" stroke="#4A4A4A" stroke-width="2" cx="20" cy="18" r="15"></circle>
                </g>
                <g id="Group-2-Copy-6" transform="translate(561.000000, 65.000000)">
                    <circle id="Oval-Copy-3" fill="#FFEE6B" cx="15" cy="15" r="15"></circle>
                    <circle id="Oval-Copy-2" stroke="#4A4A4A" stroke-width="2" cx="20" cy="18" r="15"></circle>
                </g>
                <g id="Group-2-Copy-7" transform="translate(856.000000, 142.000000)">
                    <circle id="Oval-Copy-3" fill="#FFEE6B" cx="15" cy="15" r="15"></circle>
                    <circle id="Oval-Copy-2" stroke="#4A4A4A" stroke-width="2" cx="20" cy="18" r="15"></circle>
                </g>
                <g id="Group-2-Copy" transform="translate(190.000000, 524.000000)">
                    <circle id="Oval-Copy-3" fill="#FFEE6B" cx="15" cy="15" r="15"></circle>
                    <circle id="Oval-Copy-2" stroke="#4A4A4A" stroke-width="2" cx="20" cy="18" r="15"></circle>
                </g>
                <g id="Group-2-Copy-4" transform="translate(405.000000, 573.000000)">
                    <circle id="Oval-Copy-3" fill="#FFEE6B" cx="15" cy="15" r="15"></circle>
                    <circle id="Oval-Copy-2" stroke="#4A4A4A" stroke-width="2" cx="20" cy="18" r="15"></circle>
                </g>
                <g id="Group-2-Copy-8" transform="translate(910.000000, 639.000000)">
                    <circle id="Oval-Copy-3" fill="#FFEE6B" cx="15" cy="15" r="15"></circle>
                    <circle id="Oval-Copy-2" stroke="#4A4A4A" stroke-width="2" cx="20" cy="18" r="15"></circle>
                </g>
                <g id="Group-2-Copy-5" transform="translate(613.500000, 751.500000) rotate(-315.000000) translate(-613.500000, -751.500000) translate(596.000000, 735.000000)">
                    <circle id="Oval-Copy-3" fill="#FFEE6B" cx="15" cy="15" r="15"></circle>
                    <circle id="Oval-Copy-2" stroke="#4A4A4A" stroke-width="2" cx="20" cy="18" r="15"></circle>
                </g>
                <g id="Group" transform="translate(98.000000, 447.000000)">
                    <polygon id="Path-2-Copy-5" fill="#00D0C3" points="3 4.09112645 9.98385396 10.8792142 16.0445934 4.09112645 21.1807247 10.8792142 27.5499159 4.09112645 32.6561729 10.8792142 39.1635325 4.09112645 37.3882549 1.66551538 32.6561729 6.27236478 27.5499159 0 21.1807247 5.4396071 16.0445934 0 9.98385396 5.4396071 5.71556978 1.00466534"></polygon>
                    <polygon id="Path-2-Copy-4" stroke="#4A4A4A" points="0 9.09112645 6.98385396 15.8792142 13.0445934 9.09112645 18.1807247 15.8792142 24.5499159 9.09112645 29.6561729 15.8792142 36.1635325 9.09112645 34.3882549 6.66551538 29.6561729 11.2723648 24.5499159 5 18.1807247 10.4396071 13.0445934 5 6.98385396 10.4396071 2.71556978 6.00466534"></polygon>
                    <polygon id="Path-2-Copy-5" fill="#D776D2" points="3 4.09112645 9.98385396 10.8792142 16.0445934 4.09112645 21.1807247 10.8792142 27.5499159 4.09112645 32.6561729 10.8792142 39.1635325 4.09112645 37.3882549 1.66551538 32.6561729 6.27236478 27.5499159 0 21.1807247 5.4396071 16.0445934 0 9.98385396 5.4396071 5.71556978 1.00466534"></polygon>
                    <polygon id="Path-2-Copy-4" stroke="#4A4A4A" points="0 9.09112645 6.98385396 15.8792142 13.0445934 9.09112645 18.1807247 15.8792142 24.5499159 9.09112645 29.6561729 15.8792142 36.1635325 9.09112645 34.3882549 6.66551538 29.6561729 11.2723648 24.5499159 5 18.1807247 10.4396071 13.0445934 5 6.98385396 10.4396071 2.71556978 6.00466534"></polygon>
                </g>
                <g id="Group-Copy-5" transform="translate(289.000000, 309.000000)">
                    <polygon id="Path-2-Copy-5" fill="#00D0C3" points="3 4.09112645 9.98385396 10.8792142 16.0445934 4.09112645 21.1807247 10.8792142 27.5499159 4.09112645 32.6561729 10.8792142 39.1635325 4.09112645 37.3882549 1.66551538 32.6561729 6.27236478 27.5499159 0 21.1807247 5.4396071 16.0445934 0 9.98385396 5.4396071 5.71556978 1.00466534"></polygon>
                    <polygon id="Path-2-Copy-4" stroke="#4A4A4A" points="0 9.09112645 6.98385396 15.8792142 13.0445934 9.09112645 18.1807247 15.8792142 24.5499159 9.09112645 29.6561729 15.8792142 36.1635325 9.09112645 34.3882549 6.66551538 29.6561729 11.2723648 24.5499159 5 18.1807247 10.4396071 13.0445934 5 6.98385396 10.4396071 2.71556978 6.00466534"></polygon>
                    <polygon id="Path-2-Copy-5" fill="#D776D2" points="3 4.09112645 9.98385396 10.8792142 16.0445934 4.09112645 21.1807247 10.8792142 27.5499159 4.09112645 32.6561729 10.8792142 39.1635325 4.09112645 37.3882549 1.66551538 32.6561729 6.27236478 27.5499159 0 21.1807247 5.4396071 16.0445934 0 9.98385396 5.4396071 5.71556978 1.00466534"></polygon>
                    <polygon id="Path-2-Copy-4" stroke="#4A4A4A" points="0 9.09112645 6.98385396 15.8792142 13.0445934 9.09112645 18.1807247 15.8792142 24.5499159 9.09112645 29.6561729 15.8792142 36.1635325 9.09112645 34.3882549 6.66551538 29.6561729 11.2723648 24.5499159 5 18.1807247 10.4396071 13.0445934 5 6.98385396 10.4396071 2.71556978 6.00466534"></polygon>
                </g>
                <g id="Group-Copy-9" transform="translate(509.000000, 150.000000)">
                    <polygon id="Path-2-Copy-5" fill="#00D0C3" points="3 4.09112645 9.98385396 10.8792142 16.0445934 4.09112645 21.1807247 10.8792142 27.5499159 4.09112645 32.6561729 10.8792142 39.1635325 4.09112645 37.3882549 1.66551538 32.6561729 6.27236478 27.5499159 0 21.1807247 5.4396071 16.0445934 0 9.98385396 5.4396071 5.71556978 1.00466534"></polygon>
                    <polygon id="Path-2-Copy-4" stroke="#4A4A4A" points="0 9.09112645 6.98385396 15.8792142 13.0445934 9.09112645 18.1807247 15.8792142 24.5499159 9.09112645 29.6561729 15.8792142 36.1635325 9.09112645 34.3882549 6.66551538 29.6561729 11.2723648 24.5499159 5 18.1807247 10.4396071 13.0445934 5 6.98385396 10.4396071 2.71556978 6.00466534"></polygon>
                    <polygon id="Path-2-Copy-5" fill="#D776D2" points="3 4.09112645 9.98385396 10.8792142 16.0445934 4.09112645 21.1807247 10.8792142 27.5499159 4.09112645 32.6561729 10.8792142 39.1635325 4.09112645 37.3882549 1.66551538 32.6561729 6.27236478 27.5499159 0 21.1807247 5.4396071 16.0445934 0 9.98385396 5.4396071 5.71556978 1.00466534"></polygon>
                    <polygon id="Path-2-Copy-4" stroke="#4A4A4A" points="0 9.09112645 6.98385396 15.8792142 13.0445934 9.09112645 18.1807247 15.8792142 24.5499159 9.09112645 29.6561729 15.8792142 36.1635325 9.09112645 34.3882549 6.66551538 29.6561729 11.2723648 24.5499159 5 18.1807247 10.4396071 13.0445934 5 6.98385396 10.4396071 2.71556978 6.00466534"></polygon>
                </g>
                <g id="Group-Copy-4" transform="translate(79.000000, 711.000000)">
                    <polygon id="Path-2-Copy-5" fill="#00D0C3" points="3 4.09112645 9.98385396 10.8792142 16.0445934 4.09112645 21.1807247 10.8792142 27.5499159 4.09112645 32.6561729 10.8792142 39.1635325 4.09112645 37.3882549 1.66551538 32.6561729 6.27236478 27.5499159 0 21.1807247 5.4396071 16.0445934 0 9.98385396 5.4396071 5.71556978 1.00466534"></polygon>
                    <polygon id="Path-2-Copy-4" stroke="#4A4A4A" points="0 9.09112645 6.98385396 15.8792142 13.0445934 9.09112645 18.1807247 15.8792142 24.5499159 9.09112645 29.6561729 15.8792142 36.1635325 9.09112645 34.3882549 6.66551538 29.6561729 11.2723648 24.5499159 5 18.1807247 10.4396071 13.0445934 5 6.98385396 10.4396071 2.71556978 6.00466534"></polygon>
                    <polygon id="Path-2-Copy-5" fill="#D776D2" points="3 4.09112645 9.98385396 10.8792142 16.0445934 4.09112645 21.1807247 10.8792142 27.5499159 4.09112645 32.6561729 10.8792142 39.1635325 4.09112645 37.3882549 1.66551538 32.6561729 6.27236478 27.5499159 0 21.1807247 5.4396071 16.0445934 0 9.98385396 5.4396071 5.71556978 1.00466534"></polygon>
                    <polygon id="Path-2-Copy-4" stroke="#4A4A4A" points="0 9.09112645 6.98385396 15.8792142 13.0445934 9.09112645 18.1807247 15.8792142 24.5499159 9.09112645 29.6561729 15.8792142 36.1635325 9.09112645 34.3882549 6.66551538 29.6561729 11.2723648 24.5499159 5 18.1807247 10.4396071 13.0445934 5 6.98385396 10.4396071 2.71556978 6.00466534"></polygon>
                </g>
                <g id="Group-Copy-7" transform="translate(281.000000, 623.000000)">
                    <polygon id="Path-2-Copy-5" fill="#00D0C3" points="3 4.09112645 9.98385396 10.8792142 16.0445934 4.09112645 21.1807247 10.8792142 27.5499159 4.09112645 32.6561729 10.8792142 39.1635325 4.09112645 37.3882549 1.66551538 32.6561729 6.27236478 27.5499159 0 21.1807247 5.4396071 16.0445934 0 9.98385396 5.4396071 5.71556978 1.00466534"></polygon>
                    <polygon id="Path-2-Copy-4" stroke="#4A4A4A" points="0 9.09112645 6.98385396 15.8792142 13.0445934 9.09112645 18.1807247 15.8792142 24.5499159 9.09112645 29.6561729 15.8792142 36.1635325 9.09112645 34.3882549 6.66551538 29.6561729 11.2723648 24.5499159 5 18.1807247 10.4396071 13.0445934 5 6.98385396 10.4396071 2.71556978 6.00466534"></polygon>
                    <polygon id="Path-2-Copy-5" fill="#D776D2" points="3 4.09112645 9.98385396 10.8792142 16.0445934 4.09112645 21.1807247 10.8792142 27.5499159 4.09112645 32.6561729 10.8792142 39.1635325 4.09112645 37.3882549 1.66551538 32.6561729 6.27236478 27.5499159 0 21.1807247 5.4396071 16.0445934 0 9.98385396 5.4396071 5.71556978 1.00466534"></polygon>
                    <polygon id="Path-2-Copy-4" stroke="#4A4A4A" points="0 9.09112645 6.98385396 15.8792142 13.0445934 9.09112645 18.1807247 15.8792142 24.5499159 9.09112645 29.6561729 15.8792142 36.1635325 9.09112645 34.3882549 6.66551538 29.6561729 11.2723648 24.5499159 5 18.1807247 10.4396071 13.0445934 5 6.98385396 10.4396071 2.71556978 6.00466534"></polygon>
                </g>
                <g id="Group-Copy-11" transform="translate(500.000000, 686.000000)">
                    <polygon id="Path-2-Copy-5" fill="#00D0C3" points="3 4.09112645 9.98385396 10.8792142 16.0445934 4.09112645 21.1807247 10.8792142 27.5499159 4.09112645 32.6561729 10.8792142 39.1635325 4.09112645 37.3882549 1.66551538 32.6561729 6.27236478 27.5499159 0 21.1807247 5.4396071 16.0445934 0 9.98385396 5.4396071 5.71556978 1.00466534"></polygon>
                    <polygon id="Path-2-Copy-4" stroke="#4A4A4A" points="0 9.09112645 6.98385396 15.8792142 13.0445934 9.09112645 18.1807247 15.8792142 24.5499159 9.09112645 29.6561729 15.8792142 36.1635325 9.09112645 34.3882549 6.66551538 29.6561729 11.2723648 24.5499159 5 18.1807247 10.4396071 13.0445934 5 6.98385396 10.4396071 2.71556978 6.00466534"></polygon>
                    <polygon id="Path-2-Copy-5" fill="#D776D2" points="3 4.09112645 9.98385396 10.8792142 16.0445934 4.09112645 21.1807247 10.8792142 27.5499159 4.09112645 32.6561729 10.8792142 39.1635325 4.09112645 37.3882549 1.66551538 32.6561729 6.27236478 27.5499159 0 21.1807247 5.4396071 16.0445934 0 9.98385396 5.4396071 5.71556978 1.00466534"></polygon>
                    <polygon id="Path-2-Copy-4" stroke="#4A4A4A" points="0 9.09112645 6.98385396 15.8792142 13.0445934 9.09112645 18.1807247 15.8792142 24.5499159 9.09112645 29.6561729 15.8792142 36.1635325 9.09112645 34.3882549 6.66551538 29.6561729 11.2723648 24.5499159 5 18.1807247 10.4396071 13.0445934 5 6.98385396 10.4396071 2.71556978 6.00466534"></polygon>
                </g>
                <g id="Group-Copy-19" transform="translate(460.000000, 275.000000)">
                    <polygon id="Path-2-Copy-5" fill="#00D0C3" points="3 4.09112645 9.98385396 10.8792142 16.0445934 4.09112645 21.1807247 10.8792142 27.5499159 4.09112645 32.6561729 10.8792142 39.1635325 4.09112645 37.3882549 1.66551538 32.6561729 6.27236478 27.5499159 0 21.1807247 5.4396071 16.0445934 0 9.98385396 5.4396071 5.71556978 1.00466534"></polygon>
                    <polygon id="Path-2-Copy-4" stroke="#4A4A4A" points="0 9.09112645 6.98385396 15.8792142 13.0445934 9.09112645 18.1807247 15.8792142 24.5499159 9.09112645 29.6561729 15.8792142 36.1635325 9.09112645 34.3882549 6.66551538 29.6561729 11.2723648 24.5499159 5 18.1807247 10.4396071 13.0445934 5 6.98385396 10.4396071 2.71556978 6.00466534"></polygon>
                    <polygon id="Path-2-Copy-5" fill="#D776D2" points="3 4.09112645 9.98385396 10.8792142 16.0445934 4.09112645 21.1807247 10.8792142 27.5499159 4.09112645 32.6561729 10.8792142 39.1635325 4.09112645 37.3882549 1.66551538 32.6561729 6.27236478 27.5499159 0 21.1807247 5.4396071 16.0445934 0 9.98385396 5.4396071 5.71556978 1.00466534"></polygon>
                    <polygon id="Path-2-Copy-4" stroke="#4A4A4A" points="0 9.09112645 6.98385396 15.8792142 13.0445934 9.09112645 18.1807247 15.8792142 24.5499159 9.09112645 29.6561729 15.8792142 36.1635325 9.09112645 34.3882549 6.66551538 29.6561729 11.2723648 24.5499159 5 18.1807247 10.4396071 13.0445934 5 6.98385396 10.4396071 2.71556978 6.00466534"></polygon>
                </g>
                <g id="Group-Copy-16" transform="translate(780.000000, 582.000000)">
                    <polygon id="Path-2-Copy-5" fill="#00D0C3" points="3 4.09112645 9.98385396 10.8792142 16.0445934 4.09112645 21.1807247 10.8792142 27.5499159 4.09112645 32.6561729 10.8792142 39.1635325 4.09112645 37.3882549 1.66551538 32.6561729 6.27236478 27.5499159 0 21.1807247 5.4396071 16.0445934 0 9.98385396 5.4396071 5.71556978 1.00466534"></polygon>
                    <polygon id="Path-2-Copy-4" stroke="#4A4A4A" points="0 9.09112645 6.98385396 15.8792142 13.0445934 9.09112645 18.1807247 15.8792142 24.5499159 9.09112645 29.6561729 15.8792142 36.1635325 9.09112645 34.3882549 6.66551538 29.6561729 11.2723648 24.5499159 5 18.1807247 10.4396071 13.0445934 5 6.98385396 10.4396071 2.71556978 6.00466534"></polygon>
                    <polygon id="Path-2-Copy-5" fill="#D776D2" points="3 4.09112645 9.98385396 10.8792142 16.0445934 4.09112645 21.1807247 10.8792142 27.5499159 4.09112645 32.6561729 10.8792142 39.1635325 4.09112645 37.3882549 1.66551538 32.6561729 6.27236478 27.5499159 0 21.1807247 5.4396071 16.0445934 0 9.98385396 5.4396071 5.71556978 1.00466534"></polygon>
                    <polygon id="Path-2-Copy-4" stroke="#4A4A4A" points="0 9.09112645 6.98385396 15.8792142 13.0445934 9.09112645 18.1807247 15.8792142 24.5499159 9.09112645 29.6561729 15.8792142 36.1635325 9.09112645 34.3882549 6.66551538 29.6561729 11.2723648 24.5499159 5 18.1807247 10.4396071 13.0445934 5 6.98385396 10.4396071 2.71556978 6.00466534"></polygon>
                </g>
                <g id="Group-Copy-14" transform="translate(760.000000, 109.000000)">
                    <polygon id="Path-2-Copy-5" fill="#00D0C3" points="3 4.09112645 9.98385396 10.8792142 16.0445934 4.09112645 21.1807247 10.8792142 27.5499159 4.09112645 32.6561729 10.8792142 39.1635325 4.09112645 37.3882549 1.66551538 32.6561729 6.27236478 27.5499159 0 21.1807247 5.4396071 16.0445934 0 9.98385396 5.4396071 5.71556978 1.00466534"></polygon>
                    <polygon id="Path-2-Copy-4" stroke="#4A4A4A" points="0 9.09112645 6.98385396 15.8792142 13.0445934 9.09112645 18.1807247 15.8792142 24.5499159 9.09112645 29.6561729 15.8792142 36.1635325 9.09112645 34.3882549 6.66551538 29.6561729 11.2723648 24.5499159 5 18.1807247 10.4396071 13.0445934 5 6.98385396 10.4396071 2.71556978 6.00466534"></polygon>
                    <polygon id="Path-2-Copy-5" fill="#D776D2" points="3 4.09112645 9.98385396 10.8792142 16.0445934 4.09112645 21.1807247 10.8792142 27.5499159 4.09112645 32.6561729 10.8792142 39.1635325 4.09112645 37.3882549 1.66551538 32.6561729 6.27236478 27.5499159 0 21.1807247 5.4396071 16.0445934 0 9.98385396 5.4396071 5.71556978 1.00466534"></polygon>
                    <polygon id="Path-2-Copy-4" stroke="#4A4A4A" points="0 9.09112645 6.98385396 15.8792142 13.0445934 9.09112645 18.1807247 15.8792142 24.5499159 9.09112645 29.6561729 15.8792142 36.1635325 9.09112645 34.3882549 6.66551538 29.6561729 11.2723648 24.5499159 5 18.1807247 10.4396071 13.0445934 5 6.98385396 10.4396071 2.71556978 6.00466534"></polygon>
                </g>
                <g id="Group-Copy-32" transform="translate(1244.000000, 299.000000)">
                    <polygon id="Triangle-Copy-5" fill="#00D0C3" points="19.2790743 0 30.6301023 27.4856947 7 27.0625202"></polygon>
                    <polygon id="Triangle-Copy-4" stroke="#4A4A4A" stroke-width="2" points="12.2790743 5 23.6301023 32.4856947 2.13162821e-14 32.0625202"></polygon>
                </g>
                <g id="Group-Copy-30" transform="translate(1106.000000, 472.000000)">
                    <polygon id="Triangle-Copy-5" fill="#00D0C3" points="19.2790743 0 30.6301023 27.4856947 7 27.0625202"></polygon>
                    <polygon id="Triangle-Copy-4" stroke="#4A4A4A" stroke-width="2" points="12.2790743 5 23.6301023 32.4856947 2.13162821e-14 32.0625202"></polygon>
                </g>
                <g id="Group-Copy-29" transform="translate(1106.000000, 472.000000)">
                    <polygon id="Triangle-Copy-5" fill="#00D0C3" points="19.2790743 0 30.6301023 27.4856947 7 27.0625202"></polygon>
                    <polygon id="Triangle-Copy-4" stroke="#4A4A4A" stroke-width="2" points="12.2790743 5 23.6301023 32.4856947 2.13162821e-14 32.0625202"></polygon>
                </g>
                <g id="Group-Copy-28" transform="translate(1194.000000, 661.000000)">
                    <polygon id="Triangle-Copy-5" fill="#00D0C3" points="19.2790743 0 30.6301023 27.4856947 7 27.0625202"></polygon>
                    <polygon id="Triangle-Copy-4" stroke="#4A4A4A" stroke-width="2" points="12.2790743 5 23.6301023 32.4856947 2.13162821e-14 32.0625202"></polygon>
                </g>
                <g id="Group-3-Copy-16" transform="translate(1121.000000, 0.000000)">
                    <rect id="Rectangle" fill="#FF96BC" x="0" y="0" width="30" height="30"></rect>
                    <rect id="Rectangle-Copy" stroke="#4A4A4A" stroke-width="2" x="5" y="5" width="28" height="28"></rect>
                </g>
                <g id="Group-3-Copy-15" transform="translate(978.000000, 429.000000)">
                    <rect id="Rectangle" fill="#FF96BC" x="0" y="0" width="30" height="30"></rect>
                    <rect id="Rectangle-Copy" stroke="#4A4A4A" stroke-width="2" x="5" y="5" width="28" height="28"></rect>
                </g>
                <g id="Group-3-Copy-14" transform="translate(1030.000000, 217.000000)">
                    <rect id="Rectangle" fill="#FF96BC" x="0" y="0" width="30" height="30"></rect>
                    <rect id="Rectangle-Copy" stroke="#4A4A4A" stroke-width="2" x="5" y="5" width="28" height="28"></rect>
                </g>
                <g id="Group-3-Copy-18" transform="translate(1316.000000, 167.000000)">
                    <rect id="Rectangle" fill="#FF96BC" x="0" y="0" width="30" height="30"></rect>
                    <rect id="Rectangle-Copy" stroke="#4A4A4A" stroke-width="2" x="5" y="5" width="28" height="28"></rect>
                </g>
                <g id="Group-3-Copy-13" transform="translate(1072.000000, 614.000000)">
                    <rect id="Rectangle" fill="#FF96BC" x="0" y="0" width="30" height="30"></rect>
                    <rect id="Rectangle-Copy" stroke="#4A4A4A" stroke-width="2" x="5" y="5" width="28" height="28"></rect>
                </g>
                <g id="Group-3-Copy-12" transform="translate(1347.000000, 735.000000)" fill="#FF96BC">
                    <rect id="Rectangle" x="0" y="0" width="30" height="30"></rect>
                </g>
                <g id="Group-3-Copy-11" transform="translate(1225.000000, 446.000000)">
                    <rect id="Rectangle" fill="#FF96BC" x="0" y="0" width="30" height="30"></rect>
                    <rect id="Rectangle-Copy" stroke="#4A4A4A" stroke-width="2" x="5" y="5" width="28" height="28"></rect>
                </g>
                <g id="Group-2-Copy-15" transform="translate(990.000000, 325.000000)">
                    <circle id="Oval-Copy-3" fill="#FFEE6B" cx="15" cy="15" r="15"></circle>
                    <circle id="Oval-Copy-2" stroke="#4A4A4A" stroke-width="2" cx="20" cy="18" r="15"></circle>
                </g>
                <g id="Group-2-Copy-13" transform="translate(1055.000000, 81.000000)">
                    <circle id="Oval-Copy-3" fill="#FFEE6B" cx="15" cy="15" r="15"></circle>
                    <circle id="Oval-Copy-2" stroke="#4A4A4A" stroke-width="2" cx="20" cy="18" r="15"></circle>
                </g>
                <g id="Group-2-Copy-12" transform="translate(1346.000000, 257.000000)" fill="#FFEE6B">
                    <circle id="Oval-Copy-3" cx="15" cy="15" r="15"></circle>
                </g>
                <g id="Group-2-Copy-16" transform="translate(1282.000000, 48.000000)">
                    <circle id="Oval-Copy-3" fill="#FFEE6B" cx="15" cy="15" r="15"></circle>
                    <circle id="Oval-Copy-2" stroke="#4A4A4A" stroke-width="2" cx="20" cy="18" r="15"></circle>
                </g>
                <g id="Group-2-Copy-11" transform="translate(1333.000000, 581.000000)">
                    <circle id="Oval-Copy-3" fill="#FFEE6B" cx="15" cy="15" r="15"></circle>
                    <circle id="Oval-Copy-2" stroke="#4A4A4A" stroke-width="2" cx="20" cy="18" r="15"></circle>
                </g>
                <g id="Group-2-Copy-10" transform="translate(1063.500000, 751.500000) rotate(-315.000000) translate(-1063.500000, -751.500000) translate(1046.000000, 735.000000)">
                    <circle id="Oval-Copy-3" fill="#FFEE6B" cx="15" cy="15" r="15"></circle>
                    <circle id="Oval-Copy-2" stroke="#4A4A4A" stroke-width="2" cx="20" cy="18" r="15"></circle>
                </g>
                <g id="Group-2-Copy-14" transform="translate(1284.041631, 721.041631) rotate(-315.000000) translate(-1284.041631, -721.041631) translate(1266.541631, 704.541631)">
                    <circle id="Oval-Copy-3" fill="#FFEE6B" cx="15" cy="15" r="15"></circle>
                    <circle id="Oval-Copy-2" stroke="#4A4A4A" stroke-width="2" cx="20" cy="18" r="15"></circle>
                </g>
                <g id="Group-Copy-12" transform="translate(959.000000, 142.000000)">
                    <polygon id="Path-2-Copy-5" fill="#00D0C3" points="3 4.09112645 9.98385396 10.8792142 16.0445934 4.09112645 21.1807247 10.8792142 27.5499159 4.09112645 32.6561729 10.8792142 39.1635325 4.09112645 37.3882549 1.66551538 32.6561729 6.27236478 27.5499159 0 21.1807247 5.4396071 16.0445934 0 9.98385396 5.4396071 5.71556978 1.00466534"></polygon>
                    <polygon id="Path-2-Copy-4" stroke="#4A4A4A" points="0 9.09112645 6.98385396 15.8792142 13.0445934 9.09112645 18.1807247 15.8792142 24.5499159 9.09112645 29.6561729 15.8792142 36.1635325 9.09112645 34.3882549 6.66551538 29.6561729 11.2723648 24.5499159 5 18.1807247 10.4396071 13.0445934 5 6.98385396 10.4396071 2.71556978 6.00466534"></polygon>
                    <polygon id="Path-2-Copy-5" fill="#D776D2" points="3 4.09112645 9.98385396 10.8792142 16.0445934 4.09112645 21.1807247 10.8792142 27.5499159 4.09112645 32.6561729 10.8792142 39.1635325 4.09112645 37.3882549 1.66551538 32.6561729 6.27236478 27.5499159 0 21.1807247 5.4396071 16.0445934 0 9.98385396 5.4396071 5.71556978 1.00466534"></polygon>
                    <polygon id="Path-2-Copy-4" stroke="#4A4A4A" points="0 9.09112645 6.98385396 15.8792142 13.0445934 9.09112645 18.1807247 15.8792142 24.5499159 9.09112645 29.6561729 15.8792142 36.1635325 9.09112645 34.3882549 6.66551538 29.6561729 11.2723648 24.5499159 5 18.1807247 10.4396071 13.0445934 5 6.98385396 10.4396071 2.71556978 6.00466534"></polygon>
                </g>
                <g id="Group-Copy-13" transform="translate(780.000000, 235.000000)">
                    <polygon id="Path-2-Copy-5" fill="#00D0C3" points="3 4.09112645 9.98385396 10.8792142 16.0445934 4.09112645 21.1807247 10.8792142 27.5499159 4.09112645 32.6561729 10.8792142 39.1635325 4.09112645 37.3882549 1.66551538 32.6561729 6.27236478 27.5499159 0 21.1807247 5.4396071 16.0445934 0 9.98385396 5.4396071 5.71556978 1.00466534"></polygon>
                    <polygon id="Path-2-Copy-4" stroke="#4A4A4A" points="0 9.09112645 6.98385396 15.8792142 13.0445934 9.09112645 18.1807247 15.8792142 24.5499159 9.09112645 29.6561729 15.8792142 36.1635325 9.09112645 34.3882549 6.66551538 29.6561729 11.2723648 24.5499159 5 18.1807247 10.4396071 13.0445934 5 6.98385396 10.4396071 2.71556978 6.00466534"></polygon>
                    <polygon id="Path-2-Copy-5" fill="#D776D2" points="3 4.09112645 9.98385396 10.8792142 16.0445934 4.09112645 21.1807247 10.8792142 27.5499159 4.09112645 32.6561729 10.8792142 39.1635325 4.09112645 37.3882549 1.66551538 32.6561729 6.27236478 27.5499159 0 21.1807247 5.4396071 16.0445934 0 9.98385396 5.4396071 5.71556978 1.00466534"></polygon>
                    <polygon id="Path-2-Copy-4" stroke="#4A4A4A" points="0 9.09112645 6.98385396 15.8792142 13.0445934 9.09112645 18.1807247 15.8792142 24.5499159 9.09112645 29.6561729 15.8792142 36.1635325 9.09112645 34.3882549 6.66551538 29.6561729 11.2723648 24.5499159 5 18.1807247 10.4396071 13.0445934 5 6.98385396 10.4396071 2.71556978 6.00466534"></polygon>
                </g>
                <g id="Group-Copy-27" transform="translate(990.000000, 549.000000)">
                    <polygon id="Path-2-Copy-5" fill="#00D0C3" points="3 4.09112645 9.98385396 10.8792142 16.0445934 4.09112645 21.1807247 10.8792142 27.5499159 4.09112645 32.6561729 10.8792142 39.1635325 4.09112645 37.3882549 1.66551538 32.6561729 6.27236478 27.5499159 0 21.1807247 5.4396071 16.0445934 0 9.98385396 5.4396071 5.71556978 1.00466534"></polygon>
                    <polygon id="Path-2-Copy-4" stroke="#4A4A4A" points="0 9.09112645 6.98385396 15.8792142 13.0445934 9.09112645 18.1807247 15.8792142 24.5499159 9.09112645 29.6561729 15.8792142 36.1635325 9.09112645 34.3882549 6.66551538 29.6561729 11.2723648 24.5499159 5 18.1807247 10.4396071 13.0445934 5 6.98385396 10.4396071 2.71556978 6.00466534"></polygon>
                    <polygon id="Path-2-Copy-5" fill="#D776D2" points="3 4.09112645 9.98385396 10.8792142 16.0445934 4.09112645 21.1807247 10.8792142 27.5499159 4.09112645 32.6561729 10.8792142 39.1635325 4.09112645 37.3882549 1.66551538 32.6561729 6.27236478 27.5499159 0 21.1807247 5.4396071 16.0445934 0 9.98385396 5.4396071 5.71556978 1.00466534"></polygon>
                    <polygon id="Path-2-Copy-4" stroke="#4A4A4A" points="0 9.09112645 6.98385396 15.8792142 13.0445934 9.09112645 18.1807247 15.8792142 24.5499159 9.09112645 29.6561729 15.8792142 36.1635325 9.09112645 34.3882549 6.66551538 29.6561729 11.2723648 24.5499159 5 18.1807247 10.4396071 13.0445934 5 6.98385396 10.4396071 2.71556978 6.00466534"></polygon>
                </g>
                <g id="Group-Copy-26" transform="translate(1132.000000, 372.000000)">
                    <polygon id="Path-2-Copy-5" fill="#00D0C3" points="3 4.09112645 9.98385396 10.8792142 16.0445934 4.09112645 21.1807247 10.8792142 27.5499159 4.09112645 32.6561729 10.8792142 39.1635325 4.09112645 37.3882549 1.66551538 32.6561729 6.27236478 27.5499159 0 21.1807247 5.4396071 16.0445934 0 9.98385396 5.4396071 5.71556978 1.00466534"></polygon>
                    <polygon id="Path-2-Copy-4" stroke="#4A4A4A" points="0 9.09112645 6.98385396 15.8792142 13.0445934 9.09112645 18.1807247 15.8792142 24.5499159 9.09112645 29.6561729 15.8792142 36.1635325 9.09112645 34.3882549 6.66551538 29.6561729 11.2723648 24.5499159 5 18.1807247 10.4396071 13.0445934 5 6.98385396 10.4396071 2.71556978 6.00466534"></polygon>
                    <polygon id="Path-2-Copy-5" fill="#D776D2" points="3 4.09112645 9.98385396 10.8792142 16.0445934 4.09112645 21.1807247 10.8792142 27.5499159 4.09112645 32.6561729 10.8792142 39.1635325 4.09112645 37.3882549 1.66551538 32.6561729 6.27236478 27.5499159 0 21.1807247 5.4396071 16.0445934 0 9.98385396 5.4396071 5.71556978 1.00466534"></polygon>
                    <polygon id="Path-2-Copy-4" stroke="#4A4A4A" points="0 9.09112645 6.98385396 15.8792142 13.0445934 9.09112645 18.1807247 15.8792142 24.5499159 9.09112645 29.6561729 15.8792142 36.1635325 9.09112645 34.3882549 6.66551538 29.6561729 11.2723648 24.5499159 5 18.1807247 10.4396071 13.0445934 5 6.98385396 10.4396071 2.71556978 6.00466534"></polygon>
                </g>
                <g id="Group-Copy-36" transform="translate(1292.000000, 402.000000)">
                    <polygon id="Path-2-Copy-5" fill="#00D0C3" points="3 4.09112645 9.98385396 10.8792142 16.0445934 4.09112645 21.1807247 10.8792142 27.5499159 4.09112645 32.6561729 10.8792142 39.1635325 4.09112645 37.3882549 1.66551538 32.6561729 6.27236478 27.5499159 0 21.1807247 5.4396071 16.0445934 0 9.98385396 5.4396071 5.71556978 1.00466534"></polygon>
                    <polygon id="Path-2-Copy-4" stroke="#4A4A4A" points="0 9.09112645 6.98385396 15.8792142 13.0445934 9.09112645 18.1807247 15.8792142 24.5499159 9.09112645 29.6561729 15.8792142 36.1635325 9.09112645 34.3882549 6.66551538 29.6561729 11.2723648 24.5499159 5 18.1807247 10.4396071 13.0445934 5 6.98385396 10.4396071 2.71556978 6.00466534"></polygon>
                    <polygon id="Path-2-Copy-5" fill="#D776D2" points="3 4.09112645 9.98385396 10.8792142 16.0445934 4.09112645 21.1807247 10.8792142 27.5499159 4.09112645 32.6561729 10.8792142 39.1635325 4.09112645 37.3882549 1.66551538 32.6561729 6.27236478 27.5499159 0 21.1807247 5.4396071 16.0445934 0 9.98385396 5.4396071 5.71556978 1.00466534"></polygon>
                    <polygon id="Path-2-Copy-4" stroke="#4A4A4A" points="0 9.09112645 6.98385396 15.8792142 13.0445934 9.09112645 18.1807247 15.8792142 24.5499159 9.09112645 29.6561729 15.8792142 36.1635325 9.09112645 34.3882549 6.66551538 29.6561729 11.2723648 24.5499159 5 18.1807247 10.4396071 13.0445934 5 6.98385396 10.4396071 2.71556978 6.00466534"></polygon>
                </g>
                <g id="Group-Copy-25" transform="translate(1210.000000, 565.000000)">
                    <polygon id="Path-2-Copy-5" fill="#00D0C3" points="3 4.09112645 9.98385396 10.8792142 16.0445934 4.09112645 21.1807247 10.8792142 27.5499159 4.09112645 32.6561729 10.8792142 39.1635325 4.09112645 37.3882549 1.66551538 32.6561729 6.27236478 27.5499159 0 21.1807247 5.4396071 16.0445934 0 9.98385396 5.4396071 5.71556978 1.00466534"></polygon>
                    <polygon id="Path-2-Copy-4" stroke="#4A4A4A" points="0 9.09112645 6.98385396 15.8792142 13.0445934 9.09112645 18.1807247 15.8792142 24.5499159 9.09112645 29.6561729 15.8792142 36.1635325 9.09112645 34.3882549 6.66551538 29.6561729 11.2723648 24.5499159 5 18.1807247 10.4396071 13.0445934 5 6.98385396 10.4396071 2.71556978 6.00466534"></polygon>
                    <polygon id="Path-2-Copy-5" fill="#D776D2" points="3 4.09112645 9.98385396 10.8792142 16.0445934 4.09112645 21.1807247 10.8792142 27.5499159 4.09112645 32.6561729 10.8792142 39.1635325 4.09112645 37.3882549 1.66551538 32.6561729 6.27236478 27.5499159 0 21.1807247 5.4396071 16.0445934 0 9.98385396 5.4396071 5.71556978 1.00466534"></polygon>
                    <polygon id="Path-2-Copy-4" stroke="#4A4A4A" points="0 9.09112645 6.98385396 15.8792142 13.0445934 9.09112645 18.1807247 15.8792142 24.5499159 9.09112645 29.6561729 15.8792142 36.1635325 9.09112645 34.3882549 6.66551538 29.6561729 11.2723648 24.5499159 5 18.1807247 10.4396071 13.0445934 5 6.98385396 10.4396071 2.71556978 6.00466534"></polygon>
                </g>
                <g id="Group-Copy-35" transform="translate(1152.000000, 737.000000)">
                    <polygon id="Path-2-Copy-5" fill="#00D0C3" points="3 4.09112645 9.98385396 10.8792142 16.0445934 4.09112645 21.1807247 10.8792142 27.5499159 4.09112645 32.6561729 10.8792142 39.1635325 4.09112645 37.3882549 1.66551538 32.6561729 6.27236478 27.5499159 0 21.1807247 5.4396071 16.0445934 0 9.98385396 5.4396071 5.71556978 1.00466534"></polygon>
                    <polygon id="Path-2-Copy-4" stroke="#4A4A4A" points="0 9.09112645 6.98385396 15.8792142 13.0445934 9.09112645 18.1807247 15.8792142 24.5499159 9.09112645 29.6561729 15.8792142 36.1635325 9.09112645 34.3882549 6.66551538 29.6561729 11.2723648 24.5499159 5 18.1807247 10.4396071 13.0445934 5 6.98385396 10.4396071 2.71556978 6.00466534"></polygon>
                    <polygon id="Path-2-Copy-5" fill="#D776D2" points="3 4.09112645 9.98385396 10.8792142 16.0445934 4.09112645 21.1807247 10.8792142 27.5499159 4.09112645 32.6561729 10.8792142 39.1635325 4.09112645 37.3882549 1.66551538 32.6561729 6.27236478 27.5499159 0 21.1807247 5.4396071 16.0445934 0 9.98385396 5.4396071 5.71556978 1.00466534"></polygon>
                    <polygon id="Path-2-Copy-4" stroke="#4A4A4A" points="0 9.09112645 6.98385396 15.8792142 13.0445934 9.09112645 18.1807247 15.8792142 24.5499159 9.09112645 29.6561729 15.8792142 36.1635325 9.09112645 34.3882549 6.66551538 29.6561729 11.2723648 24.5499159 5 18.1807247 10.4396071 13.0445934 5 6.98385396 10.4396071 2.71556978 6.00466534"></polygon>
                </g>
                <g id="Group-Copy-24" transform="translate(1152.000000, 211.000000)">
                    <polygon id="Path-2-Copy-5" fill="#00D0C3" points="3 4.09112645 9.98385396 10.8792142 16.0445934 4.09112645 21.1807247 10.8792142 27.5499159 4.09112645 32.6561729 10.8792142 39.1635325 4.09112645 37.3882549 1.66551538 32.6561729 6.27236478 27.5499159 0 21.1807247 5.4396071 16.0445934 0 9.98385396 5.4396071 5.71556978 1.00466534"></polygon>
                    <polygon id="Path-2-Copy-4" stroke="#4A4A4A" points="0 9.09112645 6.98385396 15.8792142 13.0445934 9.09112645 18.1807247 15.8792142 24.5499159 9.09112645 29.6561729 15.8792142 36.1635325 9.09112645 34.3882549 6.66551538 29.6561729 11.2723648 24.5499159 5 18.1807247 10.4396071 13.0445934 5 6.98385396 10.4396071 2.71556978 6.00466534"></polygon>
                    <polygon id="Path-2-Copy-5" fill="#D776D2" points="3 4.09112645 9.98385396 10.8792142 16.0445934 4.09112645 21.1807247 10.8792142 27.5499159 4.09112645 32.6561729 10.8792142 39.1635325 4.09112645 37.3882549 1.66551538 32.6561729 6.27236478 27.5499159 0 21.1807247 5.4396071 16.0445934 0 9.98385396 5.4396071 5.71556978 1.00466534"></polygon>
                    <polygon id="Path-2-Copy-4" stroke="#4A4A4A" points="0 9.09112645 6.98385396 15.8792142 13.0445934 9.09112645 18.1807247 15.8792142 24.5499159 9.09112645 29.6561729 15.8792142 36.1635325 9.09112645 34.3882549 6.66551538 29.6561729 11.2723648 24.5499159 5 18.1807247 10.4396071 13.0445934 5 6.98385396 10.4396071 2.71556978 6.00466534"></polygon>
                </g>
                <g id="Group-Copy-2" transform="translate(185.000000, 106.000000)">
                    <polygon id="Path-2-Copy-5" fill="#00D0C3" points="3 4.09112645 9.98385396 10.8792142 16.0445934 4.09112645 21.1807247 10.8792142 27.5499159 4.09112645 32.6561729 10.8792142 39.1635325 4.09112645 37.3882549 1.66551538 32.6561729 6.27236478 27.5499159 0 21.1807247 5.4396071 16.0445934 0 9.98385396 5.4396071 5.71556978 1.00466534"></polygon>
                    <polygon id="Path-2-Copy-4" stroke="#4A4A4A" points="0 9.09112645 6.98385396 15.8792142 13.0445934 9.09112645 18.1807247 15.8792142 24.5499159 9.09112645 29.6561729 15.8792142 36.1635325 9.09112645 34.3882549 6.66551538 29.6561729 11.2723648 24.5499159 5 18.1807247 10.4396071 13.0445934 5 6.98385396 10.4396071 2.71556978 6.00466534"></polygon>
                    <polygon id="Path-2-Copy-5" fill="#D776D2" points="3 4.09112645 9.98385396 10.8792142 16.0445934 4.09112645 21.1807247 10.8792142 27.5499159 4.09112645 32.6561729 10.8792142 39.1635325 4.09112645 37.3882549 1.66551538 32.6561729 6.27236478 27.5499159 0 21.1807247 5.4396071 16.0445934 0 9.98385396 5.4396071 5.71556978 1.00466534"></polygon>
                    <polygon id="Path-2-Copy-4" stroke="#4A4A4A" points="0 9.09112645 6.98385396 15.8792142 13.0445934 9.09112645 18.1807247 15.8792142 24.5499159 9.09112645 29.6561729 15.8792142 36.1635325 9.09112645 34.3882549 6.66551538 29.6561729 11.2723648 24.5499159 5 18.1807247 10.4396071 13.0445934 5 6.98385396 10.4396071 2.71556978 6.00466534"></polygon>
                </g>
            </g>
            <g id="logo" transform="translate(468.000000, 281.000000)">
                <text id="List-it.-Do-it.-Cros" font-family="Lato-Regular, Lato" font-size="30" font-weight="normal" letter-spacing="1.875" fill="#4A4A4A">
                    <tspan x="92.2725" y="209">List it. Do it. Cross it.</tspan>
                </text>
                <rect id="Rectangle-2" fill-opacity="0.75" fill="#FF96BC" fill-rule="nonzero" x="0" y="97" width="487.623047" height="18"></rect>
                <text id="Listie." font-family="Lato-Regular, Lato" font-size="150" font-weight="normal" letter-spacing="4.79863262" fill="#000000">
                    <tspan x="44.0297858" y="148">Listie.</tspan>
                </text>
            </g>
        </g>
    </g>
</svg>